<svg width="1621" height="388" viewBox="0 0 1621 388" fill="none" xmlns="http://www.w3.org/2000/svg">
<g filter="url(#filter0_d)">
<path d="M166 120.56V27.68H222.16V284H167.44V259.88C154.96 278.84 136.36 288.32 111.64 288.32C86.68 288.32 67 279.56 52.6 262.04C37.96 244.52 30.64 220.88 30.64 191.12C30.64 161.36 37.96 137.72 52.6 120.2C67 102.68 86.68 93.92 111.64 93.92C135.16 93.92 153.28 102.8 166 120.56ZM127.12 243.32C153.76 243.32 167.08 225.92 167.08 191.12C167.08 156.32 153.76 138.92 127.12 138.92C114.64 138.92 104.92 143.6 97.96 152.96C91 162.08 87.52 175.28 87.52 192.56C87.52 226.4 100.72 243.32 127.12 243.32ZM423.971 196.52V207.68H286.451C288.371 220.4 293.051 230.12 300.491 236.84C307.931 243.56 317.411 246.92 328.931 246.92C347.171 246.92 359.651 239.96 366.371 226.04H419.651C414.611 245.24 403.931 260.48 387.611 271.76C371.291 282.8 351.731 288.32 328.931 288.32C300.131 288.32 276.851 279.44 259.091 261.68C241.331 243.92 232.451 220.4 232.451 191.12C232.451 161.6 241.211 138.08 258.731 120.56C276.011 102.8 299.171 93.92 328.211 93.92C357.011 93.92 380.291 103.16 398.051 121.64C415.331 140.36 423.971 165.32 423.971 196.52ZM327.491 135.32C304.451 135.32 290.891 147.56 286.811 172.04H368.891C366.971 160.52 362.411 151.52 355.211 145.04C348.011 138.56 338.771 135.32 327.491 135.32ZM542.985 126.32L552.705 98.24H610.305L544.065 284H477.105L410.865 98.24H471.345L481.065 126.32C486.105 144.08 491.025 161.48 495.825 178.52C500.625 195.32 504.345 208.52 506.985 218.12C509.625 227.48 511.305 233.48 512.025 236.12C512.745 233.48 514.425 227.48 517.065 218.12C519.705 208.52 523.425 195.32 528.225 178.52C533.025 161.48 537.945 144.08 542.985 126.32ZM788.218 196.52V207.68H650.698C652.618 220.4 657.298 230.12 664.738 236.84C672.178 243.56 681.658 246.92 693.178 246.92C711.418 246.92 723.898 239.96 730.618 226.04H783.898C778.858 245.24 768.178 260.48 751.858 271.76C735.538 282.8 715.978 288.32 693.178 288.32C664.378 288.32 641.098 279.44 623.338 261.68C605.578 243.92 596.698 220.4 596.698 191.12C596.698 161.6 605.458 138.08 622.978 120.56C640.258 102.8 663.418 93.92 692.458 93.92C721.258 93.92 744.538 103.16 762.298 121.64C779.578 140.36 788.218 165.32 788.218 196.52ZM691.738 135.32C668.698 135.32 655.138 147.56 651.058 172.04H733.138C731.218 160.52 726.658 151.52 719.458 145.04C712.258 138.56 703.018 135.32 691.738 135.32ZM856.252 284H800.092V27.68H856.252V284ZM1035.56 261.68C1017.8 279.44 994.158 288.32 964.638 288.32C935.118 288.32 911.478 279.44 893.718 261.68C875.958 243.92 867.078 220.4 867.078 191.12C867.078 161.6 875.958 137.96 893.718 120.2C911.238 102.68 934.878 93.92 964.638 93.92C994.398 93.92 1018.04 102.68 1035.56 120.2C1053.08 137.72 1061.84 161.36 1061.84 191.12C1061.84 220.64 1053.08 244.16 1035.56 261.68ZM964.638 243.32C977.598 243.32 987.558 238.88 994.518 230C1001.48 221.12 1004.96 208.16 1004.96 191.12C1004.96 174.08 1001.48 161.12 994.518 152.24C987.558 143.36 977.598 138.92 964.638 138.92C951.438 138.92 941.358 143.36 934.398 152.24C927.438 161.12 923.958 174.08 923.958 191.12C923.958 208.16 927.438 221.12 934.398 230C941.358 238.88 951.438 243.32 964.638 243.32ZM1183.11 93.92C1208.07 93.92 1227.87 102.68 1242.51 120.2C1256.91 137.72 1264.11 161.36 1264.11 191.12C1264.11 220.88 1256.91 244.52 1242.51 262.04C1227.87 279.56 1208.07 288.32 1183.11 288.32C1159.35 288.32 1141.11 279.32 1128.39 261.32V354.56H1072.23V98.24H1126.95V123.08C1139.67 103.64 1158.39 93.92 1183.11 93.92ZM1167.63 243.32C1180.11 243.32 1189.83 238.76 1196.79 229.64C1203.75 220.28 1207.23 206.96 1207.23 189.68C1207.23 155.84 1194.03 138.92 1167.63 138.92C1140.99 138.92 1127.67 156.32 1127.67 191.12C1127.67 225.92 1140.99 243.32 1167.63 243.32ZM1458.35 196.52V207.68H1320.83C1322.75 220.4 1327.43 230.12 1334.87 236.84C1342.31 243.56 1351.79 246.92 1363.31 246.92C1381.55 246.92 1394.03 239.96 1400.75 226.04H1454.03C1448.99 245.24 1438.31 260.48 1421.99 271.76C1405.67 282.8 1386.11 288.32 1363.31 288.32C1334.51 288.32 1311.23 279.44 1293.47 261.68C1275.71 243.92 1266.83 220.4 1266.83 191.12C1266.83 161.6 1275.59 138.08 1293.11 120.56C1310.39 102.8 1333.55 93.92 1362.59 93.92C1391.39 93.92 1414.67 103.16 1432.43 121.64C1449.71 140.36 1458.35 165.32 1458.35 196.52ZM1361.87 135.32C1338.83 135.32 1325.27 147.56 1321.19 172.04H1403.27C1401.35 160.52 1396.79 151.52 1389.59 145.04C1382.39 138.56 1373.15 135.32 1361.87 135.32ZM1577.87 95.36C1578.83 95.36 1582.91 95.6 1590.11 96.08V147.2H1575.71C1542.83 147.2 1526.39 164 1526.39 197.6V284H1470.23V98.24H1524.95V132.8C1533.59 107.84 1551.23 95.36 1577.87 95.36Z" fill="white"/>
</g>
<defs>
<filter id="filter0_d" x="0.640137" y="0.679993" width="1619.47" height="386.88" filterUnits="userSpaceOnUse" color-interpolation-filters="sRGB">
<feFlood flood-opacity="0" result="BackgroundImageFix"/>
<feColorMatrix in="SourceAlpha" type="matrix" values="0 0 0 0 0 0 0 0 0 0 0 0 0 0 0 0 0 0 127 0"/>
<feOffset dy="3"/>
<feGaussianBlur stdDeviation="15"/>
<feColorMatrix type="matrix" values="0 0 0 0 0.908333 0 0 0 0 0.908333 0 0 0 0 0.908333 0 0 0 0.5 0"/>
<feBlend mode="normal" in2="BackgroundImageFix" result="effect1_dropShadow"/>
<feBlend mode="normal" in="SourceGraphic" in2="effect1_dropShadow" result="shape"/>
</filter>
</defs>
</svg>
