<svg width="941" height="124" viewBox="0 0 941 124" fill="none" xmlns="http://www.w3.org/2000/svg">
<g filter="url(#filter0_d_101_8)">
<path d="M15.6172 11.0273H30.6562V70.0605H66.3008V83H15.6172V11.0273ZM96.623 39.8359C93.4004 39.8359 90.8939 40.8451 89.1035 42.8633C87.3457 44.8815 86.2389 47.6159 85.7832 51.0664H107.414C107.186 47.388 106.063 44.6048 104.045 42.7168C102.059 40.7962 99.5853 39.8359 96.623 39.8359ZM96.623 28.3613C101.05 28.3613 105.038 29.1914 108.586 30.8516C112.134 32.5117 115.064 35.1322 117.375 38.7129C119.458 41.8704 120.809 45.5326 121.428 49.6992C121.786 52.1406 121.932 55.6562 121.867 60.2461H85.4414C85.6367 65.5846 87.3132 69.3281 90.4707 71.4766C92.3913 72.8112 94.7025 73.4785 97.4043 73.4785C100.269 73.4785 102.596 72.6647 104.387 71.0371C105.363 70.1582 106.226 68.9375 106.975 67.375H121.184C120.826 70.5326 119.182 73.7389 116.252 76.9941C111.695 82.1699 105.314 84.7578 97.1113 84.7578C90.3405 84.7578 84.3672 82.5768 79.1914 78.2148C74.0156 73.8529 71.4277 66.7565 71.4277 56.9258C71.4277 47.7135 73.7552 40.6497 78.4102 35.7344C83.0977 30.819 89.1686 28.3613 96.623 28.3613ZM125.822 40.1777V30.2656H133.244V15.4219H147.014V30.2656H155.656V40.1777H147.014V68.3027C147.014 70.4837 147.29 71.8509 147.844 72.4043C148.397 72.9251 150.09 73.1855 152.922 73.1855C153.345 73.1855 153.785 73.1855 154.24 73.1855C154.729 73.153 155.201 73.1204 155.656 73.0879V83.4883L149.064 83.7324C142.489 83.9603 137.997 82.821 135.588 80.3145C134.025 78.7194 133.244 76.2617 133.244 72.9414V40.1777H125.822ZM164.787 33.5859C167.977 32.5768 170.174 30.8678 171.379 28.459C172.03 27.0267 172.307 25.5781 172.209 24.1133H164.543V11.2715H178.459V21.5742C178.459 26.4896 177.255 30.3633 174.846 33.1953C172.469 36.0273 169.117 37.8665 164.787 38.7129V33.5859ZM199.553 66.0078C199.846 68.4818 200.48 70.2396 201.457 71.2812C203.182 73.1367 206.372 74.0645 211.027 74.0645C213.762 74.0645 215.926 73.6576 217.521 72.8438C219.149 72.0299 219.963 70.8092 219.963 69.1816C219.963 67.6191 219.312 66.431 218.01 65.6172C216.708 64.8034 211.874 63.4036 203.508 61.418C197.486 59.9206 193.238 58.0488 190.764 55.8027C188.29 53.5892 187.053 50.3991 187.053 46.2324C187.053 41.3171 188.973 37.1016 192.814 33.5859C196.688 30.0378 202.124 28.2637 209.123 28.2637C215.764 28.2637 221.167 29.5983 225.334 32.2676C229.533 34.9043 231.942 39.4779 232.561 45.9883H218.645C218.449 44.1979 217.945 42.7819 217.131 41.7402C215.601 39.8522 212.997 38.9082 209.318 38.9082C206.291 38.9082 204.126 39.3802 202.824 40.3242C201.555 41.2682 200.92 42.375 200.92 43.6445C200.92 45.2396 201.604 46.3952 202.971 47.1113C204.338 47.86 209.172 49.1458 217.473 50.9688C223.007 52.2708 227.157 54.2402 229.924 56.877C232.658 59.5462 234.025 62.8828 234.025 66.8867C234.025 72.1602 232.056 76.4733 228.117 79.8262C224.211 83.1465 218.156 84.8066 209.953 84.8066C201.587 84.8066 195.402 83.0488 191.398 79.5332C187.427 75.985 185.441 71.4766 185.441 66.0078H199.553ZM297.307 29.7773H311.418L319.523 68.1074L327.824 29.7773H342.326L326.896 83H312.59L304.24 44.2305L295.793 83H281.34L266.398 29.7773H281.34L289.641 67.9609L297.307 29.7773ZM373.918 73.1855C377.987 73.1855 381.112 71.737 383.293 68.8398C385.474 65.9427 386.564 61.8249 386.564 56.4863C386.564 51.1478 385.474 47.0462 383.293 44.1816C381.112 41.2845 377.987 39.8359 373.918 39.8359C369.849 39.8359 366.708 41.2845 364.494 44.1816C362.313 47.0462 361.223 51.1478 361.223 56.4863C361.223 61.8249 362.313 65.9427 364.494 68.8398C366.708 71.737 369.849 73.1855 373.918 73.1855ZM401.164 56.4863C401.164 64.2988 398.918 70.9883 394.426 76.5547C389.934 82.0885 383.114 84.8555 373.967 84.8555C364.82 84.8555 358 82.0885 353.508 76.5547C349.016 70.9883 346.77 64.2988 346.77 56.4863C346.77 48.804 349.016 42.1471 353.508 36.5156C358 30.8841 364.82 28.0684 373.967 28.0684C383.114 28.0684 389.934 30.8841 394.426 36.5156C398.918 42.1471 401.164 48.804 401.164 56.4863ZM440.08 28.5078C440.34 28.5078 440.552 28.5241 440.715 28.5566C440.91 28.5566 441.317 28.5729 441.936 28.6055V42.8633C441.057 42.7656 440.275 42.7005 439.592 42.668C438.908 42.6354 438.355 42.6191 437.932 42.6191C432.333 42.6191 428.573 44.4421 426.652 48.0879C425.578 50.1387 425.041 53.2962 425.041 57.5605V83H411.027V29.7773H424.309V39.0547C426.457 35.5065 428.329 33.0814 429.924 31.7793C432.528 29.5983 435.913 28.5078 440.08 28.5078ZM449.992 11.2715H463.664V50.041L480.998 30.0215H498.234L479.631 50.3828L498.967 83H482.17L469.426 60.2461L463.664 66.252V83H449.992V11.2715ZM528.166 40.1777V30.2656H535.588V15.4219H549.357V30.2656H558V40.1777H549.357V68.3027C549.357 70.4837 549.634 71.8509 550.188 72.4043C550.741 72.9251 552.434 73.1855 555.266 73.1855C555.689 73.1855 556.128 73.1855 556.584 73.1855C557.072 73.153 557.544 73.1204 558 73.0879V83.4883L551.408 83.7324C544.833 83.9603 540.34 82.821 537.932 80.3145C536.369 78.7194 535.588 76.2617 535.588 72.9414V40.1777H528.166ZM590.812 73.1855C594.882 73.1855 598.007 71.737 600.188 68.8398C602.368 65.9427 603.459 61.8249 603.459 56.4863C603.459 51.1478 602.368 47.0462 600.188 44.1816C598.007 41.2845 594.882 39.8359 590.812 39.8359C586.743 39.8359 583.602 41.2845 581.389 44.1816C579.208 47.0462 578.117 51.1478 578.117 56.4863C578.117 61.8249 579.208 65.9427 581.389 68.8398C583.602 71.737 586.743 73.1855 590.812 73.1855ZM618.059 56.4863C618.059 64.2988 615.812 70.9883 611.32 76.5547C606.828 82.0885 600.008 84.8555 590.861 84.8555C581.714 84.8555 574.895 82.0885 570.402 76.5547C565.91 70.9883 563.664 64.2988 563.664 56.4863C563.664 48.804 565.91 42.1471 570.402 36.5156C574.895 30.8841 581.714 28.0684 590.861 28.0684C600.008 28.0684 606.828 30.8841 611.32 36.5156C615.812 42.1471 618.059 48.804 618.059 56.4863ZM650.92 71.5742C654.175 71.5742 656.926 70.3535 659.172 67.9121C661.418 65.4382 662.541 61.5156 662.541 56.1445C662.541 51.099 661.467 47.2578 659.318 44.6211C657.202 41.9844 654.354 40.666 650.773 40.666C645.891 40.666 642.521 42.9609 640.666 47.5508C639.689 49.9922 639.201 53.0033 639.201 56.584C639.201 59.6764 639.722 62.4271 640.764 64.8359C642.652 69.3281 646.037 71.5742 650.92 71.5742ZM647.453 28.5078C650.122 28.5078 652.45 28.9147 654.436 29.7285C657.821 31.1283 660.555 33.6999 662.639 37.4434V29.7773H676.164V80.2656C676.164 87.1341 675.008 92.3099 672.697 95.793C668.726 101.783 661.109 104.777 649.846 104.777C643.042 104.777 637.492 103.443 633.195 100.773C628.898 98.1042 626.522 94.1165 626.066 88.8105H641.203C641.594 90.4382 642.229 91.61 643.107 92.3262C644.605 93.5957 647.128 94.2305 650.676 94.2305C655.689 94.2305 659.042 92.554 660.734 89.2012C661.841 87.0527 662.395 83.4395 662.395 78.3613V74.9434C661.06 77.222 659.628 78.931 658.098 80.0703C655.331 82.1862 651.734 83.2441 647.307 83.2441C640.471 83.2441 635.002 80.8516 630.9 76.0664C626.831 71.2487 624.797 64.7383 624.797 56.5352C624.797 48.625 626.766 41.9844 630.705 36.6133C634.644 31.2096 640.227 28.5078 647.453 28.5078ZM710.197 39.8359C706.975 39.8359 704.468 40.8451 702.678 42.8633C700.92 44.8815 699.813 47.6159 699.357 51.0664H720.988C720.76 47.388 719.637 44.6048 717.619 42.7168C715.633 40.7962 713.16 39.8359 710.197 39.8359ZM710.197 28.3613C714.624 28.3613 718.612 29.1914 722.16 30.8516C725.708 32.5117 728.638 35.1322 730.949 38.7129C733.033 41.8704 734.383 45.5326 735.002 49.6992C735.36 52.1406 735.507 55.6562 735.441 60.2461H699.016C699.211 65.5846 700.887 69.3281 704.045 71.4766C705.965 72.8112 708.277 73.4785 710.979 73.4785C713.843 73.4785 716.171 72.6647 717.961 71.0371C718.938 70.1582 719.8 68.9375 720.549 67.375H734.758C734.4 70.5326 732.756 73.7389 729.826 76.9941C725.269 82.1699 718.889 84.7578 710.686 84.7578C703.915 84.7578 697.941 82.5768 692.766 78.2148C687.59 73.8529 685.002 66.7565 685.002 56.9258C685.002 47.7135 687.329 40.6497 691.984 35.7344C696.672 30.819 702.743 28.3613 710.197 28.3613ZM739.396 40.1777V30.2656H746.818V15.4219H760.588V30.2656H769.23V40.1777H760.588V68.3027C760.588 70.4837 760.865 71.8509 761.418 72.4043C761.971 72.9251 763.664 73.1855 766.496 73.1855C766.919 73.1855 767.359 73.1855 767.814 73.1855C768.303 73.153 768.775 73.1204 769.23 73.0879V83.4883L762.639 83.7324C756.063 83.9603 751.571 82.821 749.162 80.3145C747.6 78.7194 746.818 76.2617 746.818 72.9414V40.1777H739.396ZM807.512 28.4102C810.799 28.4102 813.778 28.9798 816.447 30.1191C819.149 31.2585 821.363 33 823.088 35.3438C824.553 37.3294 825.448 39.3802 825.773 41.4961C826.099 43.5794 826.262 46.9974 826.262 51.75V83H812.053V50.627C812.053 47.7624 811.564 45.4512 810.588 43.6934C809.318 41.2194 806.91 39.9824 803.361 39.9824C799.683 39.9824 796.883 41.2194 794.963 43.6934C793.075 46.1348 792.131 49.6341 792.131 54.1914V83H778.264V11.2715H792.131V36.7109C794.149 33.6185 796.477 31.4701 799.113 30.2656C801.783 29.0286 804.582 28.4102 807.512 28.4102ZM860.295 39.8359C857.072 39.8359 854.566 40.8451 852.775 42.8633C851.018 44.8815 849.911 47.6159 849.455 51.0664H871.086C870.858 47.388 869.735 44.6048 867.717 42.7168C865.731 40.7962 863.257 39.8359 860.295 39.8359ZM860.295 28.3613C864.722 28.3613 868.71 29.1914 872.258 30.8516C875.806 32.5117 878.736 35.1322 881.047 38.7129C883.13 41.8704 884.481 45.5326 885.1 49.6992C885.458 52.1406 885.604 55.6562 885.539 60.2461H849.113C849.309 65.5846 850.985 69.3281 854.143 71.4766C856.063 72.8112 858.374 73.4785 861.076 73.4785C863.941 73.4785 866.268 72.6647 868.059 71.0371C869.035 70.1582 869.898 68.9375 870.646 67.375H884.855C884.497 70.5326 882.854 73.7389 879.924 76.9941C875.367 82.1699 868.986 84.7578 860.783 84.7578C854.012 84.7578 848.039 82.5768 842.863 78.2148C837.688 73.8529 835.1 66.7565 835.1 56.9258C835.1 47.7135 837.427 40.6497 842.082 35.7344C846.77 30.819 852.84 28.3613 860.295 28.3613ZM923.869 28.5078C924.13 28.5078 924.341 28.5241 924.504 28.5566C924.699 28.5566 925.106 28.5729 925.725 28.6055V42.8633C924.846 42.7656 924.064 42.7005 923.381 42.668C922.697 42.6354 922.144 42.6191 921.721 42.6191C916.122 42.6191 912.362 44.4421 910.441 48.0879C909.367 50.1387 908.83 53.2962 908.83 57.5605V83H894.816V29.7773H908.098V39.0547C910.246 35.5065 912.118 33.0814 913.713 31.7793C916.317 29.5983 919.702 28.5078 923.869 28.5078Z" fill="white"/>
</g>
<defs>
<filter id="filter0_d_101_8" x="0.617188" y="0.0273438" width="940.107" height="123.75" filterUnits="userSpaceOnUse" color-interpolation-filters="sRGB">
<feFlood flood-opacity="0" result="BackgroundImageFix"/>
<feColorMatrix in="SourceAlpha" type="matrix" values="0 0 0 0 0 0 0 0 0 0 0 0 0 0 0 0 0 0 127 0" result="hardAlpha"/>
<feOffset dy="4"/>
<feGaussianBlur stdDeviation="7.5"/>
<feComposite in2="hardAlpha" operator="out"/>
<feColorMatrix type="matrix" values="0 0 0 0 0 0 0 0 0 0 0 0 0 0 0 0 0 0 0.05 0"/>
<feBlend mode="normal" in2="BackgroundImageFix" result="effect1_dropShadow_101_8"/>
<feBlend mode="normal" in="SourceGraphic" in2="effect1_dropShadow_101_8" result="shape"/>
</filter>
</defs>
</svg>
