<svg width="238" height="46" viewBox="0 0 238 46" fill="none" xmlns="http://www.w3.org/2000/svg">
<circle cx="23" cy="23" r="21.5" stroke="black" stroke-width="3"/>
<path d="M24.8552 31H21.1372V15.336H24.8552V31Z" fill="black"/>
<path d="M63.906 22H60.188V6.336H63.906V22ZM73.0901 12.364L73.6841 10.648H77.2041L73.1561 22H69.0641L65.0161 10.648H68.7121L69.3061 12.364C69.6141 13.4493 69.9148 14.5127 70.2081 15.554C70.5015 16.5807 70.7288 17.3873 70.8901 17.974C71.0515 18.546 71.1541 18.9127 71.1981 19.074C71.2421 18.9127 71.3448 18.546 71.5061 17.974C71.6675 17.3873 71.8948 16.5807 72.1881 15.554C72.4815 14.5127 72.7821 13.4493 73.0901 12.364ZM88.6056 22H85.1516C84.9756 21.6627 84.8803 21.2373 84.8656 20.724C84.103 21.7507 82.893 22.264 81.2356 22.264C79.989 22.264 78.9843 21.956 78.2216 21.34C77.4736 20.724 77.0996 19.8733 77.0996 18.788C77.0996 16.676 78.581 15.4953 81.5436 15.246L83.3256 15.092C84.3083 14.9893 84.7996 14.6153 84.7996 13.97C84.7996 13.2073 84.2203 12.826 83.0616 12.826C82.3576 12.826 81.859 12.936 81.5656 13.156C81.287 13.3613 81.1183 13.75 81.0596 14.322H77.6496C77.855 11.6967 79.6663 10.384 83.0836 10.384C86.457 10.384 88.1436 11.55 88.1436 13.882V19.91C88.1436 20.8633 88.2976 21.56 88.6056 22ZM82.2696 19.954C83.047 19.954 83.663 19.756 84.1176 19.36C84.5723 18.9493 84.7996 18.3407 84.7996 17.534V16.698C84.5943 16.918 84.213 17.0647 83.6556 17.138L82.2476 17.292C81.1476 17.4093 80.5976 17.864 80.5976 18.656C80.5976 19.052 80.7443 19.3673 81.0376 19.602C81.331 19.8367 81.7416 19.954 82.2696 19.954ZM96.4641 12.276L96.9701 10.648H100.512L96.3981 22.44C95.8848 23.9067 95.2321 24.9187 94.4401 25.476C93.6188 26.048 92.3868 26.334 90.7441 26.334C90.4654 26.334 90.0181 26.3193 89.4021 26.29V23.65H90.5021C91.6461 23.65 92.2181 23.122 92.2181 22.066C92.2181 21.5967 92.0421 20.8633 91.6901 19.866L88.4341 10.648H92.1301L92.6361 12.254C93.3694 14.718 94.0148 17.1013 94.5721 19.404C95.1441 17.0133 95.7748 14.6373 96.4641 12.276ZM104.822 22H101.39V6.336H104.822V22ZM116.66 20.636C115.575 21.7213 114.13 22.264 112.326 22.264C110.522 22.264 109.077 21.7213 107.992 20.636C106.907 19.5507 106.364 18.1133 106.364 16.324C106.364 14.52 106.907 13.0753 107.992 11.99C109.063 10.9193 110.507 10.384 112.326 10.384C114.145 10.384 115.589 10.9193 116.66 11.99C117.731 13.0607 118.266 14.5053 118.266 16.324C118.266 18.128 117.731 19.5653 116.66 20.636ZM112.326 19.514C113.118 19.514 113.727 19.2427 114.152 18.7C114.577 18.1573 114.79 17.3653 114.79 16.324C114.79 15.2827 114.577 14.4907 114.152 13.948C113.727 13.4053 113.118 13.134 112.326 13.134C111.519 13.134 110.903 13.4053 110.478 13.948C110.053 14.4907 109.84 15.2827 109.84 16.324C109.84 17.3653 110.053 18.1573 110.478 18.7C110.903 19.2427 111.519 19.514 112.326 19.514ZM138.292 20.108C136.81 21.604 134.874 22.352 132.484 22.352C130.093 22.352 128.157 21.604 126.676 20.108C125.194 18.5973 124.454 16.6173 124.454 14.168C124.454 11.7187 125.194 9.73867 126.676 8.228C128.157 6.732 130.093 5.984 132.484 5.984C134.874 5.984 136.81 6.732 138.292 8.228C139.773 9.73867 140.514 11.7187 140.514 14.168C140.514 16.6173 139.773 18.5973 138.292 20.108ZM129.47 17.798C130.218 18.678 131.222 19.118 132.484 19.118C133.73 19.118 134.742 18.678 135.52 17.798C136.282 16.9327 136.664 15.7227 136.664 14.168C136.664 12.6133 136.282 11.4033 135.52 10.538C134.742 9.658 133.73 9.218 132.484 9.218C131.222 9.218 130.218 9.658 129.47 10.538C128.707 11.4033 128.326 12.6133 128.326 14.168C128.326 15.7227 128.707 16.9327 129.47 17.798ZM149.295 12.364L149.889 10.648H153.409L149.361 22H145.269L141.221 10.648H144.917L145.511 12.364C145.819 13.4493 146.12 14.5127 146.413 15.554C146.707 16.5807 146.934 17.3873 147.095 17.974C147.257 18.546 147.359 18.9127 147.403 19.074C147.447 18.9127 147.55 18.546 147.711 17.974C147.873 17.3873 148.1 16.5807 148.393 15.554C148.687 14.5127 148.987 13.4493 149.295 12.364ZM159.288 22.264C157.513 22.264 156.098 21.7213 155.042 20.636C153.986 19.5507 153.458 18.1133 153.458 16.324C153.458 14.5053 153.986 13.0607 155.042 11.99C156.098 10.9193 157.513 10.384 159.288 10.384C160.842 10.384 162.111 10.7947 163.094 11.616C164.091 12.4227 164.67 13.5227 164.832 14.916H161.422C161.231 13.7573 160.52 13.178 159.288 13.178C157.718 13.178 156.934 14.2267 156.934 16.324C156.934 18.4067 157.718 19.448 159.288 19.448C160.608 19.448 161.341 18.81 161.488 17.534H164.898C164.795 18.9713 164.23 20.1227 163.204 20.988C162.177 21.8387 160.872 22.264 159.288 22.264ZM173.095 10.384C174.298 10.384 175.251 10.7507 175.955 11.484C176.674 12.2027 177.033 13.2293 177.033 14.564V22H173.601V15.246C173.601 13.9553 172.993 13.31 171.775 13.31C171.159 13.31 170.646 13.5153 170.235 13.926C169.825 14.3367 169.619 14.916 169.619 15.664V22H166.187V6.336H169.619V12.144C170.485 10.9707 171.643 10.384 173.095 10.384ZM189.947 22H186.493C186.317 21.6627 186.222 21.2373 186.207 20.724C185.445 21.7507 184.235 22.264 182.577 22.264C181.331 22.264 180.326 21.956 179.563 21.34C178.815 20.724 178.441 19.8733 178.441 18.788C178.441 16.676 179.923 15.4953 182.885 15.246L184.667 15.092C185.65 14.9893 186.141 14.6153 186.141 13.97C186.141 13.2073 185.562 12.826 184.403 12.826C183.699 12.826 183.201 12.936 182.907 13.156C182.629 13.3613 182.46 13.75 182.401 14.322H178.991C179.197 11.6967 181.008 10.384 184.425 10.384C187.799 10.384 189.485 11.55 189.485 13.882V19.91C189.485 20.8633 189.639 21.56 189.947 22ZM183.611 19.954C184.389 19.954 185.005 19.756 185.459 19.36C185.914 18.9493 186.141 18.3407 186.141 17.534V16.698C185.936 16.918 185.555 17.0647 184.997 17.138L183.589 17.292C182.489 17.4093 181.939 17.864 181.939 18.656C181.939 19.052 182.086 19.3673 182.379 19.602C182.673 19.8367 183.083 19.954 183.611 19.954ZM197.881 10.472C197.939 10.472 198.189 10.4867 198.629 10.516V13.64H197.749C195.739 13.64 194.735 14.6667 194.735 16.72V22H191.303V10.648H194.647V12.76C195.175 11.2347 196.253 10.472 197.881 10.472ZM209.429 20.636C208.344 21.7213 206.899 22.264 205.095 22.264C203.291 22.264 201.847 21.7213 200.761 20.636C199.676 19.5507 199.133 18.1133 199.133 16.324C199.133 14.52 199.676 13.0753 200.761 11.99C201.832 10.9193 203.277 10.384 205.095 10.384C206.914 10.384 208.359 10.9193 209.429 11.99C210.5 13.0607 211.035 14.5053 211.035 16.324C211.035 18.128 210.5 19.5653 209.429 20.636ZM205.095 19.514C205.887 19.514 206.496 19.2427 206.921 18.7C207.347 18.1573 207.559 17.3653 207.559 16.324C207.559 15.2827 207.347 14.4907 206.921 13.948C206.496 13.4053 205.887 13.134 205.095 13.134C204.289 13.134 203.673 13.4053 203.247 13.948C202.822 14.4907 202.609 15.2827 202.609 16.324C202.609 17.3653 202.822 18.1573 203.247 18.7C203.673 19.2427 204.289 19.514 205.095 19.514ZM219.141 12.364L219.735 10.648H223.255L219.207 22H215.115L211.067 10.648H214.763L215.357 12.364C215.665 13.4493 215.966 14.5127 216.259 15.554C216.552 16.5807 216.78 17.3873 216.941 17.974C217.102 18.546 217.205 18.9127 217.249 19.074C217.293 18.9127 217.396 18.546 217.557 17.974C217.718 17.3873 217.946 16.5807 218.239 15.554C218.532 14.5127 218.833 13.4493 219.141 12.364Z" fill="black"/>
<path d="M66.57 37.39L67.54 33.88H68.41L66.39 41H65.45L64.43 37.37C64.1433 36.3433 63.9267 35.54 63.78 34.96C63.6333 35.54 63.4167 36.3433 63.13 37.37L62.11 41H61.17L59.15 33.88H60.02L60.99 37.39C61.2967 38.4767 61.52 39.3267 61.66 39.94C61.8933 39.0467 62.12 38.19 62.34 37.37L63.31 33.88H64.25L65.22 37.37C65.4467 38.19 65.6733 39.0467 65.9 39.94C66.04 39.3267 66.2633 38.4767 66.57 37.39ZM75.4605 33.88V34.64H71.3505V36.91H75.0605V37.67H71.3505V40.24H75.4205V41H70.5105V33.88H75.4605ZM81.8502 37.3C82.6702 37.6133 83.0802 38.18 83.0802 39C83.0802 39.62 82.8768 40.11 82.4702 40.47C82.0702 40.8233 81.5035 41 80.7702 41H77.6602V33.88H80.6202C81.3068 33.88 81.8402 34.0533 82.2202 34.4C82.6002 34.74 82.7902 35.1867 82.7902 35.74C82.7902 36.4533 82.4768 36.9733 81.8502 37.3ZM80.5602 34.64H78.5002V36.99H80.5602C81.0202 36.99 81.3702 36.8833 81.6102 36.67C81.8502 36.4567 81.9702 36.1567 81.9702 35.77C81.9702 35.4167 81.8468 35.14 81.6002 34.94C81.3602 34.74 81.0135 34.64 80.5602 34.64ZM78.5002 40.24H80.7302C81.2235 40.24 81.5968 40.1333 81.8502 39.92C82.1102 39.7067 82.2402 39.4 82.2402 39C82.2402 38.16 81.7335 37.74 80.7202 37.74H78.5002V40.24ZM88.4828 33.88H90.8828C91.9628 33.88 92.8161 34.1933 93.4428 34.82C94.0628 35.4467 94.3728 36.32 94.3728 37.44C94.3728 38.5467 94.0628 39.4167 93.4428 40.05C92.8095 40.6833 91.9561 41 90.8828 41H88.4828V33.88ZM89.3228 40.24H90.8828C91.7228 40.24 92.3661 39.9933 92.8128 39.5C93.2661 39.0067 93.4928 38.32 93.4928 37.44C93.4928 36.56 93.2661 35.8733 92.8128 35.38C92.3661 34.8867 91.7228 34.64 90.8828 34.64H89.3228V40.24ZM101.627 33.88V34.64H97.5173V36.91H101.227V37.67H97.5173V40.24H101.587V41H96.6773V33.88H101.627ZM106.94 38.39L108.56 33.88H109.44L106.8 41H105.86L103.18 33.88H104.07L105.72 38.39C106.02 39.2367 106.224 39.8267 106.33 40.16C106.43 39.8267 106.634 39.2367 106.94 38.39ZM116.395 33.88V34.64H112.285V36.91H115.995V37.67H112.285V40.24H116.355V41H111.445V33.88H116.395ZM119.435 33.88V40.24H123.015V41H118.595V33.88H119.435ZM129.958 40.13C129.331 40.8167 128.504 41.16 127.478 41.16C126.451 41.16 125.628 40.8167 125.008 40.13C124.381 39.4567 124.068 38.56 124.068 37.44C124.068 36.3267 124.381 35.4267 125.008 34.74C125.628 34.06 126.451 33.72 127.478 33.72C128.504 33.72 129.331 34.06 129.958 34.74C130.578 35.4333 130.888 36.3333 130.888 37.44C130.888 38.5533 130.578 39.45 129.958 40.13ZM125.638 39.59C126.098 40.1233 126.711 40.39 127.478 40.39C128.244 40.39 128.858 40.1233 129.318 39.59C129.778 39.0633 130.008 38.3467 130.008 37.44C130.008 36.5333 129.778 35.8167 129.318 35.29C128.858 34.7567 128.244 34.49 127.478 34.49C126.711 34.49 126.098 34.7567 125.638 35.29C125.178 35.8167 124.948 36.5333 124.948 37.44C124.948 38.3467 125.178 39.0633 125.638 39.59ZM133.187 33.88H136.147C136.9 33.88 137.48 34.0767 137.887 34.47C138.3 34.8633 138.507 35.3967 138.507 36.07C138.507 36.7433 138.3 37.2767 137.887 37.67C137.48 38.0633 136.9 38.26 136.147 38.26H134.027V41H133.187V33.88ZM134.027 37.5H136.147C136.64 37.5 137.01 37.38 137.257 37.14C137.51 36.8933 137.637 36.5367 137.637 36.07C137.637 35.6033 137.51 35.25 137.257 35.01C137.01 34.7633 136.64 34.64 136.147 34.64H134.027V37.5ZM145.697 33.88V34.64H141.587V36.91H145.297V37.67H141.587V40.24H145.657V41H140.747V33.88H145.697ZM153.126 38.94L153.196 40.09C153.23 40.49 153.316 40.7933 153.456 41H152.586C152.44 40.7867 152.363 40.47 152.356 40.05L152.326 39.29C152.306 38.81 152.2 38.47 152.006 38.27C151.813 38.0633 151.496 37.96 151.056 37.96H148.736V41H147.896V33.88H150.906C151.64 33.88 152.223 34.05 152.656 34.39C153.096 34.73 153.316 35.2067 153.316 35.82C153.316 36.2533 153.21 36.62 152.996 36.92C152.79 37.2133 152.506 37.42 152.146 37.54C152.746 37.7267 153.073 38.1933 153.126 38.94ZM148.736 37.2H151.006C151.453 37.2 151.803 37.0867 152.056 36.86C152.316 36.6267 152.446 36.2967 152.446 35.87C152.446 35.4633 152.31 35.1567 152.036 34.95C151.77 34.7433 151.393 34.64 150.906 34.64H148.736V37.2Z" fill="black"/>
</svg>
